<svg xmlns="http://www.w3.org/2000/svg" width="994.317" height="570.655" viewBox="0 0 994.317 570.655">
  <g id="Gruppe_4" data-name="Gruppe 4" transform="translate(-926.928 -413.129)" opacity="0.912">
    <path id="Pfad_2" data-name="Pfad 2" d="M1800.008,514l-125.873,32.706,100.432,17.009Z" transform="translate(-1 -92)" fill="none" stroke="#fff" stroke-width="1"/>
    <path id="Pfad_3" data-name="Pfad 3" d="M1673.964,547.025l-85.745,17.451,64.435,20.3Z" transform="translate(-1 -92)" fill="none" stroke="#fff" stroke-width="1"/>
    <path id="Pfad_4" data-name="Pfad 4" d="M1586.205,564.476l-40.763,105.435-9.912-82.278Z" transform="translate(-1 -92)" fill="none" stroke="#fff" stroke-width="1"/>
    <path id="Pfad_5" data-name="Pfad 5" d="M1545.442,669.782,1426.292,609.95l108.9-22.149Z" transform="translate(-1 -92)" fill="none" stroke="#fff" stroke-width="1"/>
    <path id="Pfad_6" data-name="Pfad 6" d="M1426.292,609.916l-21.26,75.694-111.469-32.066Z" transform="translate(-1 -92)" fill="none" stroke="#fff" stroke-width="1"/>
    <path id="Pfad_35" data-name="Pfad 35" d="M1215.714,782.956l76.836-128.774-92.945,78.6-59.881-17.018" transform="translate(-1 -92)" fill="none" stroke="#fff" stroke-width="1"/>
    <path id="Pfad_36" data-name="Pfad 36" d="M1390.355,685.441l-174.486,105.7,64.452-138.312Z" transform="translate(11.856 -92)" fill="none" stroke="#fff" stroke-width="1"/>
    <path id="Pfad_37" data-name="Pfad 37" d="M1406.181,684.711l137.69-15.576L1425.5,609.948Z" transform="translate(-1 -92)" fill="none" stroke="#fff" stroke-width="1"/>
    <path id="Pfad_38" data-name="Pfad 38" d="M1653.064,584.692l-107.28,85.16,40.921-105.8Z" transform="translate(-1 -92)" fill="none" stroke="#fff" stroke-width="1"/>
    <path id="Pfad_39" data-name="Pfad 39" d="M1653.433,584.323l121.289-20.645L1674.446,546.72Z" transform="translate(-1 -92)" fill="none" stroke="#fff" stroke-width="1"/>
    <path id="Pfad_40" data-name="Pfad 40" d="M1355.2,714.684l-43.954,66.982L1224.5,820.007Z" transform="translate(-1 -92)" fill="none" stroke="#fff" stroke-width="1"/>
    <path id="Pfad_41" data-name="Pfad 41" d="M1138.306,716.05l-43.235,6.671,11.075,29.03Z" transform="translate(-1 -92)" fill="none" stroke="#fff" stroke-width="1"/>
    <path id="Pfad_42" data-name="Pfad 42" d="M1094.918,722.288h-59.836l30.624-43.868Z" transform="translate(-1 -92)" fill="none" stroke="#fff" stroke-width="1"/>
    <path id="Pfad_43" data-name="Pfad 43" d="M1035.617,724.371,988.93,736.1l20.947,33.182Z" transform="translate(-3 -93)" fill="none" stroke="#fff" stroke-width="1"/>
    <path id="Pfad_44" data-name="Pfad 44" d="M986.414,735.486l-30.168,8.355L968.39,768.2Z" transform="translate(-1 -92)" fill="none" stroke="#fff" stroke-width="1"/>
    <path id="Pfad_45" data-name="Pfad 45" d="M945.86,726.044,959.1,743.811l-28.29,1.854Z" transform="translate(-2.817 -92.609)" fill="none" stroke="#fff" stroke-width="1"/>
    <path id="Pfad_46" data-name="Pfad 46" d="M929.9,745.826l38.494,22.99-12.373-25.357Z" transform="translate(-1 -92)" fill="none" stroke="#fff" stroke-width="1"/>
    <path id="Pfad_47" data-name="Pfad 47" d="M987.317,735.228l-18.7,33.817,39.029-.458Z" transform="translate(-1 -92)" fill="none" stroke="#fff" stroke-width="1"/>
    <path id="Pfad_48" data-name="Pfad 48" d="M1034.3,722.288l45.952,31.14-72.284,15.231Z" transform="translate(-1 -92)" fill="none" stroke="#fff" stroke-width="1"/>
    <path id="Pfad_49" data-name="Pfad 49" d="M1095.1,722.836l-14.457,30.591-46.468-31.366Z" transform="translate(-1 -92)" fill="none" stroke="#fff" stroke-width="1"/>
    <path id="Pfad_50" data-name="Pfad 50" d="M956.338,743.231l23.1-33.431-35.5,15.877Z" transform="translate(-1 -92)" fill="none" stroke="#fff" stroke-width="1"/>
    <path id="Pfad_51" data-name="Pfad 51" d="M980.734,708.9l53.309,13.424-78.092,21.169Z" transform="translate(-1 -92)" fill="none" stroke="#fff" stroke-width="1"/>
    <path id="Pfad_52" data-name="Pfad 52" d="M981.42,708.9l84.2-30.912L1035.3,722.267Z" transform="translate(-1 -92)" fill="none" stroke="#fff" stroke-width="1"/>
    <path id="Pfad_53" data-name="Pfad 53" d="M1092.722,673.051l2.685,49.5-29.7-45.139Z" transform="translate(-1 -92)" fill="none" stroke="#fff" stroke-width="1"/>
    <path id="Pfad_54" data-name="Pfad 54" d="M1093.226,673.387l46.481,42.622-44.467,6.544Z" transform="translate(-1 -92)" fill="none" stroke="#fff" stroke-width="1"/>
    <path id="Pfad_55" data-name="Pfad 55" d="M1080.557,753.428l25.639-1.712-10.907-28.577Z" transform="translate(-1 -92)" fill="none" stroke="#fff" stroke-width="1"/>
    <path id="Pfad_56" data-name="Pfad 56" d="M1199.343,732.956l-92.71,18.978,32.5-36.211Z" transform="translate(-1 -92)" fill="none" stroke="#fff" stroke-width="1"/>
    <path id="Pfad_57" data-name="Pfad 57" d="M1199.561,733.174l29.423,57.191s64.16-137.9,64.16-137.249S1199.561,733.174,1199.561,733.174Z" transform="translate(-1 -92)" fill="none" stroke="#fff" stroke-width="1"/>
    <path id="Pfad_58" data-name="Pfad 58" d="M1106.632,751.75l84.937,12.185,7.555-30.761Z" transform="translate(-1 -92)" fill="none" stroke="#fff" stroke-width="1"/>
    <path id="Pfad_59" data-name="Pfad 59" d="M1228.725,789.332l-37.018-24.68,8.1-30.438Z" transform="translate(-1 -92)" fill="none" stroke="#fff" stroke-width="1"/>
    <path id="Pfad_60" data-name="Pfad 60" d="M1138.306,715.723l35.514-42.756h-80.712Z" transform="translate(-1 -92)" fill="none" stroke="#fff" stroke-width="1"/>
    <path id="Pfad_61" data-name="Pfad 61" d="M1173.82,672.967l25.523,59.116L1138.481,715.5Z" transform="translate(-1 -92)" fill="none" stroke="#fff" stroke-width="1"/>
    <path id="Pfad_62" data-name="Pfad 62" d="M1174.256,672.967l119.323-20.942L1200,732.3Z" transform="translate(-1 -92)" fill="none" stroke="#fff" stroke-width="1"/>
    <path id="Pfad_63" data-name="Pfad 63" d="M1225.52,815.7l2.837-27.893,126.338-76.31Z" transform="translate(-1 -88.139)" fill="none" stroke="#fff" stroke-width="1"/>
    <path id="Pfad_64" data-name="Pfad 64" d="M1227.8,792.359l-83.139,62.526,80.854-36.092Z" transform="translate(-1 -92)" fill="none" stroke="#fff" stroke-width="1"/>
    <path id="Pfad_65" data-name="Pfad 65" d="M1144.795,855.014l2.843,33.456,77.787-68.939Z" transform="translate(-1 -92)" fill="none" stroke="#fff" stroke-width="1"/>
    <path id="Pfad_66" data-name="Pfad 66" d="M1147.1,889.6l44.806,15.314,32.9-85.359Z" transform="translate(-1 -92)" fill="none" stroke="#fff" stroke-width="1"/>
    <path id="Pfad_67" data-name="Pfad 67" d="M1191.708,905.485l52.378-41.971-19.284-43.1Z" transform="translate(-1 -92)" fill="none" stroke="#fff" stroke-width="1"/>
    <path id="Pfad_68" data-name="Pfad 68" d="M1298.533,836.858l-53.314,26.09,5.858,33.2Z" transform="translate(-1 -92)" fill="none" stroke="#fff" stroke-width="1"/>
    <path id="Pfad_69" data-name="Pfad 69" d="M1298.533,835.724l40.553-31.478" transform="translate(-1 -92)" fill="none" stroke="#fff" stroke-width="1"/>
    <path id="Pfad_70" data-name="Pfad 70" d="M1339.658,803.965l77.822-27.612-106.18,6.06Z" transform="translate(-1 -92)" fill="none" stroke="#fff" stroke-width="1"/>
    <path id="Pfad_71" data-name="Pfad 71" d="M1146.816,890.172l32.329,24.1,12.478-8.508Z" transform="translate(-1 -92)" fill="none" stroke="#fff" stroke-width="1"/>
    <path id="Pfad_72" data-name="Pfad 72" d="M1180.279,914.276l70.363-17.471-6.557-34.142Z" transform="translate(-1 -92)" fill="none" stroke="#fff" stroke-width="1"/>
    <path id="Pfad_73" data-name="Pfad 73" d="M1251.078,897.242l118.352-65.205-70.9,4.254Z" transform="translate(-1 -92)" fill="none" stroke="#fff" stroke-width="1"/>
    <path id="Pfad_74" data-name="Pfad 74" d="M1224.8,820.694l74.016,15.314-54.732,26.941Z" transform="translate(-1 -92)" fill="none" stroke="#fff" stroke-width="1"/>
    <path id="Pfad_75" data-name="Pfad 75" d="M1311.011,782.341l27.508,21.621s-37.15,30.627-39.7,31.194-74.866-14.746-74.866-14.746Z" transform="translate(-1 -92)" fill="none" stroke="#fff" stroke-width="1"/>
    <path id="Pfad_76" data-name="Pfad 76" d="M1298.817,836.3l114.976-6.841-74.865-25.041Z" transform="translate(-1 -92)" fill="none" stroke="#fff" stroke-width="1"/>
    <path id="Pfad_77" data-name="Pfad 77" d="M1214.865,905.75l-4.314,47.172-29.363-38.644Z" transform="translate(-1 -92)" fill="none" stroke="#fff" stroke-width="1"/>
    <path id="Pfad_78" data-name="Pfad 78" d="M1212.73,950.305l-15.689,34.756,14.378,24.7Z" transform="translate(-1 -92)" fill="none" stroke="#fff" stroke-width="1"/>
    <path id="Pfad_79" data-name="Pfad 79" d="M1211.419,1009.761l8.111,32.121-12.534,33.727Z" transform="translate(-1 -92)" fill="none" stroke="#fff" stroke-width="1"/>
    <path id="Pfad_80" data-name="Pfad 80" d="M1206.995,1074.964l-23.863-14.328,28.01-50.211" transform="translate(-1 -92)" fill="none" stroke="#fff" stroke-width="1"/>
    <path id="Pfad_81" data-name="Pfad 81" d="M1211.142,1010.167l-39.953-7.868,11.943,58.079Z" transform="translate(-1 -92)" fill="none" stroke="#fff" stroke-width="1"/>
    <path id="Pfad_82" data-name="Pfad 82" d="M1197.137,985l-24.775,17.135,39.336,8.036Z" transform="translate(-1 -92)" fill="none" stroke="#fff" stroke-width="1"/>
    <path id="Pfad_83" data-name="Pfad 83" d="M1171.524,1001.964l-2.3-34.922,27.04,17.451Z" transform="translate(-1 -92)" fill="none" stroke="#fff" stroke-width="1"/>
    <path id="Pfad_84" data-name="Pfad 84" d="M1169.411,966.371l10.572-52.186,16.78,70.141Z" transform="translate(-1 -92)" fill="none" stroke="#fff" stroke-width="1"/>
    <path id="Pfad_85" data-name="Pfad 85" d="M1229.527,1051.148c-.654-.218-9.893-9.518-9.893-9.518l-12.216,32.5Z" transform="translate(-1 -92)" fill="none" stroke="#fff" stroke-width="1"/>
    <path id="Pfad_86" data-name="Pfad 86" d="M1229.9,1050.568l4.906-67.123-23.027,26.438,7.283,31.689Z" transform="translate(-1 -91.704)" fill="none" stroke="#fff" stroke-width="1"/>
    <path id="Pfad_87" data-name="Pfad 87" d="M1233.383,983.648c-1.25-.873-25.3-5.18-25.3-5.18l2.651,30.594Z" transform="translate(0.167 -92.036)" fill="none" stroke="#fff" stroke-width="1"/>
    <path id="Pfad_88" data-name="Pfad 88" d="M1234.808,983.195l-20.188-74.849-5.366,70.225Z" transform="translate(-1 -92)" fill="none" stroke="#fff" stroke-width="1"/>
    <path id="Pfad_89" data-name="Pfad 89" d="M1250,897.034l-14.807,85.287-20.329-76.135Z" transform="translate(-1 -92)" fill="none" stroke="#fff" stroke-width="1"/>
    <path id="Pfad_90" data-name="Pfad 90" d="M1355.366,714.516l31.2,34.99-75.552,32.906Z" transform="translate(-1 -92)" fill="none" stroke="#fff" stroke-width="1"/>
    <path id="Pfad_91" data-name="Pfad 91" d="M1386.568,749.138h115.265l-145.628-34.453Z" transform="translate(-1 -92)" fill="none" stroke="#fff" stroke-width="1"/>
    <path id="Pfad_92" data-name="Pfad 92" d="M1502.792,748.554l42.466-78.725-139.24,15.314Z" transform="translate(-1 -92)" fill="none" stroke="#fff" stroke-width="1"/>
    <path id="Pfad_93" data-name="Pfad 93" d="M1502.792,749.034l-146.083-35.189,48.741-28.7Z" transform="translate(-1 -92)" fill="none" stroke="#fff" stroke-width="1"/>
    <path id="Pfad_94" data-name="Pfad 94" d="M1413.793,829.772l89-81.217-163.133,55.127Z" transform="translate(-1 -92)" fill="none" stroke="#fff" stroke-width="1"/>
    <path id="Pfad_95" data-name="Pfad 95" d="M1506.147,745.679,1502.3,853.451l-88.479-23.963Z" transform="translate(-1 -92)" fill="none" stroke="#fff" stroke-width="1"/>
    <path id="Pfad_96" data-name="Pfad 96" d="M1545.8,669.858l-42.765,183.225V749.513Z" transform="translate(-1 -92)" fill="none" stroke="#fff" stroke-width="1"/>
    <path id="Pfad_97" data-name="Pfad 97" d="M1317.6,891.423l37.012-50.465-4.953,70.665Z" transform="translate(-1 -92)" fill="none" stroke="#fff" stroke-width="1"/>
    <path id="Pfad_98" data-name="Pfad 98" d="M1317.241,890.76l-28.592,34.29-2.25-47.561Z" transform="translate(-0.641 -90.506)" fill="none" stroke="#fff" stroke-width="1"/>
    <path id="Pfad_99" data-name="Pfad 99" d="M1272.917,987.941l16.326-51.322,60.8-14.7Z" transform="translate(-1 -102.218)" fill="none" stroke="#fff" stroke-width="1"/>
    <path id="Pfad_100" data-name="Pfad 100" d="M1265.616,1015.849l6.26-36.134,19.814,57.044Z" transform="translate(-1 -92)" fill="none" stroke="#fff" stroke-width="1"/>
    <path id="Pfad_101" data-name="Pfad 101" d="M1265.615,1017.506l-2.735,54.08-21.795-7.146,24.53-48.777" transform="translate(-1 -92)" fill="none" stroke="#fff" stroke-width="1"/>
    <path id="Pfad_102" data-name="Pfad 102" d="M1265.76,1016.107l25.814,20.993-28.359,34.485Z" transform="translate(-1.168 -92)" fill="none" stroke="#fff" stroke-width="1"/>
    <path id="Pfad_103" data-name="Pfad 103" d="M1291.742,1037.186l-7.048,24.667-21.646,10.068Z" transform="translate(-1 -92)" fill="none" stroke="#fff" stroke-width="1"/>
    <path id="Pfad_104" data-name="Pfad 104" d="M1271.425,978.545l-32.591,5.061,26.4,31.413" transform="translate(-1 -92)" fill="none" stroke="#fff" stroke-width="1"/>
    <path id="Pfad_105" data-name="Pfad 105" d="M1240.886,1062.95l-1.575-34.808,25.918-12.809Z" transform="translate(-1 -92)" fill="none" stroke="#fff" stroke-width="1"/>
    <path id="Pfad_106" data-name="Pfad 106" d="M1271.685,979.063l21.556,23.88-.775,34.851Z" transform="translate(-1 -92)" fill="none" stroke="#fff" stroke-width="1"/>
    <path id="Pfad_107" data-name="Pfad 107" d="M1271.814,978.934l48.689-41.85-27,65.73Z" transform="translate(-1 -92)" fill="none" stroke="#fff" stroke-width="1"/>
    <path id="Pfad_108" data-name="Pfad 108" d="M1288.466,926.787l-24.277-31.056-25.16,87.464,49.437-56.408" transform="translate(-1 -92)" fill="none" stroke="#fff" stroke-width="1"/>
    <path id="Pfad_109" data-name="Pfad 109" d="M1238.96,983.682l49.745-56.894-17.177,51.731Z" transform="translate(-1 -92)" fill="none" stroke="#fff" stroke-width="1"/>
    <path id="Pfad_110" data-name="Pfad 110" d="M1318.025,891.335l31.195,20.287-60.426,14.4Z" transform="translate(-1 -92)" fill="none" stroke="#fff" stroke-width="1"/>
    <path id="Pfad_111" data-name="Pfad 111" d="M1414.226,830.255l-64.352,80.5,33.76-78.617Z" transform="translate(-1 -92)" fill="none" stroke="#fff" stroke-width="1"/>
    <path id="Pfad_112" data-name="Pfad 112" d="M1502.3,853.451l-76.988,72.743-10.493-96.419Z" transform="translate(-1 -92)" fill="none" stroke="#fff" stroke-width="1"/>
    <path id="Pfad_114" data-name="Pfad 114" d="M1394.447,916.869l-16.282,85.944,47.657-76.206Z" transform="translate(-1 -92)" fill="none" stroke="#fff" stroke-width="1"/>
    <path id="Pfad_116" data-name="Pfad 116" d="M1394.274,916.707l20.222-86.421s12,96.49,10.653,96.322S1394.274,916.707,1394.274,916.707Z" transform="translate(-1 -92)" fill="none" stroke="#fff" stroke-width="1"/>
    <path id="Pfad_117" data-name="Pfad 117" d="M1401.826,965.874l1.678,63.094L1378,1002.622Z" transform="translate(-1 -93)" fill="none" stroke="#fff" stroke-width="1"/>
    <path id="Pfad_118" data-name="Pfad 118" d="M1403.5,1028.968l-30.823,25.908,5.034-52.36Z" transform="translate(-1 -92)" fill="none" stroke="#fff" stroke-width="1"/>
    <path id="Pfad_119" data-name="Pfad 119" d="M1377.431,970.583l-40.271,15.031,35,35.757Z" transform="translate(0 -58.366)" fill="none" stroke="#fff" stroke-width="1"/>
    <path id="Pfad_120" data-name="Pfad 120" d="M1393.211,917.33,1337.054,1018.9l40.608-15.606Z" transform="translate(0 -92)" fill="none" stroke="#fff" stroke-width="1"/>
    <path id="Pfad_121" data-name="Pfad 121" d="M1337.054,1018.9l-1.878-47.231,58.42-54.232Z" transform="translate(-1 -92)" fill="none" stroke="#fff" stroke-width="1"/>
    <path id="Pfad_123" data-name="Pfad 123" d="M1350.044,911.623l44.064,4.582-58.9,55.375Z" transform="translate(-1 -92)" fill="none" stroke="#fff" stroke-width="1"/>
    <path id="Pfad_125" data-name="Pfad 125" d="M1394.947,916.2l-45.475-4.866,64.37-80.4Z" transform="translate(-1 -92)" fill="none" stroke="#fff" stroke-width="1"/>
    <path id="Pfad_126" data-name="Pfad 126" d="M1503.516,853.451l95.144-7.724-173.005,80.21Z" transform="translate(-1 -92)" fill="none" stroke="#fff" stroke-width="1"/>
    <path id="Pfad_127" data-name="Pfad 127" d="M1598.66,845.728l-173.173,80.881Z" transform="translate(-1 -92)" fill="none" stroke="#fff" stroke-width="1"/>
    <path id="Pfad_128" data-name="Pfad 128" d="M1599.3,845.9l92.977-54.157L1511.115,820.5Z" transform="translate(-1 -92)" fill="none" stroke="#fff" stroke-width="1"/>
    <path id="Pfad_129" data-name="Pfad 129" d="M1532.681,666.729l159.594,64.7-181.161,27.318Z" transform="translate(-1 -30.73)" fill="none" stroke="#fff" stroke-width="1"/>
    <path id="Pfad_130" data-name="Pfad 130" d="M1691.8,792.622l104,29.313-42.375-110.414Z" transform="translate(-1 -92)" fill="none" stroke="#fff" stroke-width="1"/>
    <path id="Pfad_131" data-name="Pfad 131" d="M1699.944,655.631l-167.263,3.834,158.157,63.263Z" transform="translate(-1 -23.466)" fill="none" stroke="#fff" stroke-width="1"/>
    <path id="Pfad_132" data-name="Pfad 132" d="M1548.977,669.782l150.968,54.863" transform="translate(-1 -92)" fill="none" stroke="#fff" stroke-width="1"/>
    <path id="Pfad_133" data-name="Pfad 133" d="M1700.958,724.85l107.78-27.522L1740.093,627.3Z" transform="translate(-1 -92)" fill="none" stroke="#fff" stroke-width="1"/>
    <path id="Pfad_136" data-name="Pfad 136" d="M1547.539,669.051l192.184-42.175-39.3,98.249Z" transform="translate(-1 -92)" fill="none" stroke="#fff" stroke-width="1"/>
    <path id="Pfad_137" data-name="Pfad 137" d="M1739.724,626.876,1547.06,669.051l106.4-84.829" transform="translate(-1 -92)" fill="none" stroke="#fff" stroke-width="1"/>
    <path id="Pfad_138" data-name="Pfad 138" d="M1652.748,584.757l87.061,42.538L1546.97,668.983Z" transform="translate(-1 -92)" fill="none" stroke="#fff" stroke-width="1"/>
    <path id="Pfad_139" data-name="Pfad 139" d="M1739.918,627.164l121.943-2.618-53.009,72.642Z" transform="translate(-1 -92)" fill="none" stroke="#fff" stroke-width="1"/>
    <path id="Pfad_141" data-name="Pfad 141" d="M1740.511,626.424c.851-1.042,34.463-62.936,34.463-62.936" transform="translate(-1 -92)" fill="none" stroke="#fff" stroke-width="1"/>
    <path id="Pfad_143" data-name="Pfad 143" d="M1774.748,564.056l87,59.724s-122.765,5.9-121.659,3.318S1774.748,564.056,1774.748,564.056Z" transform="translate(-1 -92)" fill="none" stroke="#fff" stroke-width="1"/>
    <path id="Pfad_145" data-name="Pfad 145" d="M1795.8,821.935l94.882-39.233-138.107-71.464Z" transform="translate(-1 -92)" fill="none" stroke="#fff" stroke-width="1"/>
    <path id="Pfad_149" data-name="Pfad 149" d="M1386.724,749.448l32.194,26.905,82.916-26.905Z" transform="translate(-1 -92)" fill="none" stroke="#fff" stroke-width="1"/>
    <path id="Pfad_150" data-name="Pfad 150" d="M1417.959,775.874l-105.3,6.362,74.172-32.668Z" transform="translate(-1 -92)" fill="none" stroke="#fff" stroke-width="1"/>
    <path id="Pfad_153" data-name="Pfad 153" d="M1774.236,563.961l-34.594,63.25-86.872-42.468Z" transform="translate(-1 -92)" fill="none" stroke="#fff" stroke-width="1"/>
    <path id="Pfad_154" data-name="Pfad 154" d="M1210.427,953.685l-13.726,30.8-16.23-70.705Z" transform="translate(-1 -92)" fill="none" stroke="#fff" stroke-width="1"/>
    <path id="Pfad_155" data-name="Pfad 155" d="M1288.6,928.2l-24.415-31.422,21.73-15.229Z" transform="translate(-1 -94.563)" fill="none" stroke="#fff" stroke-width="1"/>
    <path id="Pfad_156" data-name="Pfad 156" d="M1355.105,840.054c-.832-.629-69.187,38.257-69.187,38.257l31.272,13.705Z" transform="translate(-1 -92)" fill="none" stroke="#fff" stroke-width="1"/>
    <path id="Pfad_157" data-name="Pfad 157" d="M1239.029,984.294v43.412l26.9-12.216Z" transform="translate(-1 -92)" fill="none" stroke="#fff" stroke-width="1"/>
    <path id="Pfad_158" data-name="Pfad 158" d="M1382.9,828.919l-32.989,78.795,4.6-70.684,14.378-7.374Z" transform="translate(-1 -89.154)" fill="none" stroke="#fff" stroke-width="1"/>
    <path id="Pfad_159" data-name="Pfad 159" d="M1372.832,1054.33s-24.433-5.672-24.869-7.2-10.471-27.269-10.471-27.269Z" transform="translate(-1 -92)" fill="none" stroke="#fff" stroke-width="1"/>
    <path id="Pfad_160" data-name="Pfad 160" d="M1598.048,845.759l-87.093-25-7.887,31.884Z" transform="translate(-1 -92)" fill="none" stroke="#fff" stroke-width="1"/>
    <path id="Pfad_161" data-name="Pfad 161" d="M1533.107,727.286l166.467-2.685-153.21-55.209Z" transform="translate(-1 -92)" fill="none" stroke="#fff" stroke-width="1"/>
    <path id="Pfad_162" data-name="Pfad 162" d="M1700.244,725.1l52.021-13.425-60.411,79.877Z" transform="translate(-1 -92)" fill="none" stroke="#fff" stroke-width="1"/>
    <path id="Pfad_164" data-name="Pfad 164" d="M1847.923,760.609l-39.136-63.242-55.585,13.9Z" transform="translate(-1 -92)" fill="none" stroke="#fff" stroke-width="1"/>
    <path id="Pfad_1" data-name="Pfad 1" d="M1909,514.665l-118.93,8.327L1909,581.226Z" transform="translate(10 -101)" fill="none" stroke="#fff" stroke-width="1"/>
    <path id="Pfad_134" data-name="Pfad 134" d="M1811.134,697.214l73.327,14.492L1920.738,686l-1.134-30.911Z" transform="translate(-1 -92)" fill="none" stroke="#fff" stroke-width="1"/>
    <path id="Pfad_140" data-name="Pfad 140" d="M1861.987,624.547l58.166,30.694L1809,697.213Z" transform="translate(-1.267 -92)" fill="none" stroke="#fff" stroke-width="1"/>
    <path id="Pfad_142" data-name="Pfad 142" d="M1776.391,564.047H1905.96l-104.428-49.9Z" transform="translate(-2.67 -92)" fill="none" stroke="#fff" stroke-width="1"/>
    <path id="Pfad_146" data-name="Pfad 146" d="M1808.738,697.189l39.186,62.57,72.885-40.554Z" transform="translate(-1 -92)" fill="none" stroke="#fff" stroke-width="1"/>
    <path id="Pfad_147" data-name="Pfad 147" d="M1890.679,782.418l30.06,51.329V720.6Z" transform="translate(-1 -92)" fill="none" stroke="#fff" stroke-width="1"/>
    <path id="Pfad_148" data-name="Pfad 148" d="M1796.528,822.4l123.077,11.06L1890.962,782.7Z" transform="translate(-1 -92)" fill="none" stroke="#fff" stroke-width="1"/>
    <path id="Pfad_151" data-name="Pfad 151" d="M1919.887,572.226v82.656l-57.769-30.541,41.448-59.336Z" transform="translate(-1 -92)" fill="none" stroke="#fff" stroke-width="1"/>
    <path id="Pfad_152" data-name="Pfad 152" d="M1920,686.515v31.85l-34.539-6.544Z" transform="translate(-1 -92)" fill="none" stroke="#fff" stroke-width="1"/>
    <path id="Pfad_163" data-name="Pfad 163" d="M1890.747,782.446l29.778-62.392-72.317,40.271Z" transform="translate(-1 -92)" fill="none" stroke="#fff" stroke-width="1"/>
    <path id="Pfad_144" data-name="Pfad 144" d="M1903.631,564.476l-41.879,60.04-87.373-60.04Z" transform="translate(-1 -92)" fill="none" stroke="#fff" stroke-width="1"/>
  </g>
</svg>
